<svg xmlns="http://www.w3.org/2000/svg" width="162" height="145" viewBox="0 0 162 145" fill="none"><path d="M131.59 72.3727C130.235 72.0336 130.913 72.3727 131.251 73.0511C135.318 76.4427 130.235 84.5825 141.079 88.3133C143.79 80.5126 142.434 75.4252 131.59 72.3727ZM137.012 85.2609C137.69 85.6 138.368 85.9392 139.385 86.2783C140.062 83.565 140.74 80.8518 138.707 78.1385C137.351 76.4427 135.318 75.4252 133.285 74.4077C133.285 74.0685 132.946 74.0685 132.946 73.7294C135.318 74.4077 138.029 75.7644 139.723 77.7993C141.757 80.5126 141.079 84.5825 140.062 86.9567C139.046 86.6175 138.029 85.9392 137.012 85.2609Z" fill="#C8593B"></path><path d="M100.075 127.656C109.902 123.925 113.291 119.516 105.158 109.68C104.141 108.324 104.48 109.341 104.48 110.02C105.158 115.107 94.3136 118.499 100.075 127.656ZM100.413 125.282C105.497 123.247 108.547 120.873 107.869 117.142C108.885 121.551 105.835 123.925 100.075 126.299C99.0579 124.604 99.0579 122.908 99.3967 121.212C99.3967 122.569 99.7356 123.586 100.413 125.282Z" fill="#C8593B"></path><path d="M131.251 60.1629C129.557 60.1629 130.574 60.5021 131.251 60.8413C131.59 61.1804 132.268 61.5196 132.607 61.8588C132.946 62.1979 133.285 62.8762 133.624 63.2154C135.657 66.9462 135.318 73.0511 144.468 74.7469C144.807 66.2678 142.434 61.5196 131.251 60.1629ZM142.773 73.3902C141.418 73.0511 140.062 72.7119 139.046 72.0336C139.723 72.0336 140.74 72.0336 141.757 72.3727C142.096 69.6594 141.757 67.2853 139.385 64.9112C138.029 63.5546 135.657 62.5371 133.285 62.1979C133.285 61.8587 132.946 61.8588 132.607 61.5196C135.318 61.8588 138.368 62.8762 140.062 64.572C143.112 66.9462 143.112 70.6769 142.773 73.3902Z" fill="#C8593B"></path><path d="M91.9414 116.125C91.6025 121.212 79.7417 122.229 83.4694 132.065C83.8083 132.065 84.1472 132.065 84.486 131.726C94.9913 130.03 98.3801 125.96 92.958 115.785C91.6025 114.429 91.9414 115.446 91.9414 116.125ZM83.8083 131.048C83.4694 129.352 83.4694 127.656 84.1472 126.299C83.8083 127.317 83.8083 128.334 84.1472 129.691C89.9081 128.673 92.958 126.978 93.6358 123.925C93.6358 127.656 90.247 129.691 83.8083 131.048Z" fill="#C8593B"></path><path d="M135.318 100.523C139.723 93.4007 140.062 87.9741 129.218 83.2259C127.863 82.5476 128.54 83.2259 128.879 83.9042C132.268 87.635 125.152 94.7574 135.318 100.523ZM135.657 89.6699C134.64 87.9741 132.946 86.2783 130.913 85.2609V84.9217C133.285 86.2783 135.996 87.9741 137.012 90.0091C138.368 93.0616 136.674 96.7923 135.318 99.1665C133.962 98.4881 132.946 97.4706 132.268 96.4532C132.946 96.7923 133.962 97.4706 134.64 97.8098C135.657 95.4357 137.012 92.7224 135.657 89.6699Z" fill="#C8593B"></path><path d="M160.395 64.9112C161.073 64.572 161.751 64.572 160.395 64.2329C152.94 62.8762 148.195 64.572 146.162 69.6595C146.162 67.2853 146.162 65.2504 145.823 62.8762C151.584 57.4497 148.195 48.9706 139.385 43.8832C138.029 42.8657 138.368 43.8832 139.046 44.2224C139.385 44.9007 139.723 45.579 139.723 46.5965V46.9357C139.723 49.649 138.368 52.7014 138.707 55.7539V56.093C138.707 56.4322 138.707 56.7713 139.046 57.1105C139.723 58.8063 141.079 60.8413 144.129 62.5371C143.79 60.1629 143.451 57.7888 143.112 55.4147C143.112 55.0755 143.112 54.7364 143.112 54.3972C143.451 54.7364 143.79 55.4147 143.79 56.093C144.129 57.7888 144.468 59.1455 144.807 60.8413C145.484 64.9112 145.484 68.9811 145.146 73.0511C144.468 84.9217 140.062 95.7748 132.946 104.932C128.879 110.359 124.135 115.107 118.374 118.838C117.696 119.177 117.357 119.516 116.68 119.855C113.291 122.229 109.224 124.264 105.497 126.299H105.158C104.48 126.638 103.463 126.978 102.786 127.317C97.3635 129.691 91.2636 131.048 85.1638 132.404C83.8083 132.743 82.4528 133.083 81.0972 134.1C79.7417 133.422 78.3862 132.743 77.0307 132.404C70.9308 131.387 64.831 129.691 59.4089 127.317C58.7312 126.978 57.7145 126.638 57.0368 126.299H56.6979C52.6313 124.604 48.9037 122.229 45.5149 119.855C44.8371 119.516 44.4982 119.177 43.8205 118.838C38.0595 114.768 33.3152 110.02 29.2486 104.932C22.1322 95.4357 18.0656 84.9217 17.049 73.0511C16.7101 68.9811 17.049 64.9112 17.3878 60.8413C17.7267 59.1455 18.0656 57.7888 18.4045 56.093C18.4045 55.7539 18.7434 55.0755 19.0822 54.3972C19.0822 54.7364 19.0822 54.7364 19.0822 55.4147C18.7434 57.7888 18.4045 60.1629 18.0656 62.5371C20.7766 60.5021 22.471 58.8063 23.1488 57.1105C23.4877 56.7713 23.4877 56.4322 23.4877 56.093V55.7539C24.1654 52.3622 22.471 49.3098 22.471 46.9357V46.5965C22.471 45.9182 22.8099 45.2399 23.1488 44.2224C22.8099 43.8832 23.4877 43.2049 21.7933 44.2224C12.9824 49.3098 9.59361 57.7888 15.3546 63.2154C15.0157 65.5895 15.0157 67.6245 15.0157 69.9986C12.9824 64.9112 7.89921 63.2154 0.782731 64.572C-0.572788 64.9112 0.104972 64.9112 0.782731 65.2504C5.52705 66.607 3.83265 76.4427 15.3546 75.086C15.3546 78.1385 16.0323 81.1909 16.7101 84.2434C13.3213 79.8343 8.23809 78.8168 1.12161 81.5301C-0.233908 82.2084 0.443852 82.2084 1.12161 82.2084C6.20481 82.5476 6.54369 92.7224 18.0656 89.3308C19.0822 92.0441 20.0989 95.0965 21.4544 97.4706C17.049 93.4007 11.288 93.4007 4.51041 97.1315C3.15489 97.8098 4.17153 97.8098 4.84929 97.8098C10.2714 97.4706 12.9824 107.306 23.8266 101.88C24.8432 103.915 26.1987 105.611 27.5542 107.306C27.8931 107.985 28.5709 108.324 28.9098 109.002C23.8266 105.95 17.7267 106.967 11.6269 111.376C10.2714 112.055 11.288 112.055 11.9658 111.715C17.7267 110.359 22.1322 120.194 32.9763 113.072C34.6707 114.768 36.704 116.803 38.7373 118.159C37.0429 117.82 35.3485 117.481 33.993 117.82C30.2653 118.159 26.5376 120.194 23.1488 123.586C22.1322 124.604 22.8099 124.264 23.4877 123.925C28.9098 121.89 35.3485 130.708 44.8371 122.569C46.8704 123.925 49.2425 125.282 51.6147 126.638C48.9037 126.299 46.1926 126.978 44.1593 128.334C41.4483 129.691 39.0761 132.065 36.704 135.117C35.6873 136.474 36.704 135.796 37.3817 135.457C42.8038 132.404 51.2758 140.205 59.4089 130.369C62.12 131.387 64.831 132.404 67.542 133.083C63.8144 133.761 61.4422 135.457 59.4089 137.831C57.7145 139.527 56.359 141.562 55.3424 143.936C54.6646 145.292 55.3424 144.614 56.0201 144.275C60.4256 140.544 71.2697 146.31 76.6918 135.117C77.3696 135.457 78.3862 135.796 79.4028 136.135C78.3862 136.813 77.7084 137.492 77.0307 138.509C76.6918 139.187 76.3529 139.866 76.3529 140.883C76.3529 141.222 76.3529 141.562 76.3529 141.901C76.3529 142.24 76.6918 142.579 77.0307 142.918C77.3696 142.918 78.0473 142.579 78.0473 142.24C78.3862 140.205 79.064 138.848 80.4195 137.492C80.7584 137.152 80.7584 137.152 81.0972 136.813C81.4361 136.813 81.4361 137.152 81.775 137.492C82.7916 138.509 83.8083 140.205 84.1472 142.24C84.1472 142.579 84.486 142.918 85.1638 142.918C85.5027 142.918 85.8416 142.579 85.8416 141.901C85.8416 141.562 85.8416 141.222 85.8416 140.883C85.5027 140.205 85.5027 139.187 85.1638 138.509C84.486 137.492 83.8083 136.813 82.7916 136.135C83.8083 135.796 84.486 135.457 85.5027 135.117C90.9248 145.971 101.43 140.205 106.174 144.275C106.852 144.953 107.53 145.631 106.852 143.936C105.835 141.562 104.48 139.187 102.786 137.831C100.752 135.457 98.3801 133.761 94.6524 133.083C97.3635 132.404 100.075 131.387 102.786 130.369C110.58 140.544 119.391 132.743 124.813 135.457C125.49 135.796 126.507 136.474 125.49 135.117C123.457 132.065 120.746 129.691 118.035 128.334C116.002 126.978 113.291 126.299 110.58 126.638C112.952 125.282 115.324 123.925 117.357 122.569C126.846 130.708 133.285 121.89 138.707 123.925C139.385 124.264 140.401 124.604 139.046 123.586C135.318 120.194 131.929 118.159 128.202 117.82C126.507 117.481 125.152 117.82 123.457 118.159C125.49 116.464 127.524 114.768 129.218 113.072C139.723 120.194 144.468 110.359 150.229 111.715C150.906 112.055 151.923 112.055 150.568 111.037C144.468 106.289 138.368 105.611 133.285 108.663C133.624 107.985 134.301 107.645 134.64 106.967C135.996 105.271 137.351 103.236 138.368 101.541C149.212 106.967 151.923 96.7923 157.345 97.4706C158.023 97.4706 159.04 97.8098 157.684 96.7923C150.906 93.0616 145.146 93.0616 140.74 97.1315C142.096 94.4182 143.112 91.7049 144.129 88.9916C155.312 92.3832 155.651 82.5476 161.073 81.8692C161.751 81.8692 162.767 81.8692 161.073 81.1909C153.956 78.8168 148.873 79.4951 145.484 83.9042C146.162 80.8518 146.84 77.7993 146.84 74.7469C157.345 76.4427 155.651 66.2678 160.395 64.9112ZM153.279 70.6769C153.956 69.6595 154.634 68.3028 155.312 66.9462C155.651 66.2678 156.329 65.5895 156.667 65.2504C154.973 65.2504 153.618 65.2504 152.262 65.2504C153.956 64.572 155.651 64.572 158.023 64.9112C157.345 65.2504 157.006 65.9287 156.667 66.607C155.99 67.9636 155.312 68.9811 154.634 70.3378C153.279 72.3727 151.584 73.7294 148.873 74.0685C150.906 73.7294 151.923 72.3727 153.279 70.6769ZM6.54369 70.3378C5.86593 68.9811 5.18817 67.9636 4.51041 66.607C4.17153 65.9287 3.49377 65.2504 3.15489 64.9112C5.52705 64.572 7.22145 64.9112 8.91585 65.2504C7.56033 64.9112 6.20481 64.9112 4.51041 65.2504C5.18817 65.5895 5.52705 66.2678 5.86593 66.9462C6.54369 67.9636 7.22145 69.3203 7.89921 70.6769C8.91585 72.3727 10.2714 73.7294 12.3046 74.0685C9.59361 73.7294 7.89921 72.3727 6.54369 70.3378ZM18.4045 60.8413C18.7434 59.1455 18.7434 57.4497 19.0822 55.7539C19.0822 55.4147 19.0822 54.7364 19.0822 54.3972C21.4544 56.4322 19.0822 59.8238 18.4045 60.8413ZM15.6934 61.8588C11.6269 57.1105 13.999 50.6664 20.7766 46.2574C20.7766 46.9357 20.4378 47.2748 20.4378 47.9532C15.3546 52.0231 13.3213 56.4322 15.6934 60.5021C15.6934 60.8413 15.6934 61.1804 15.6934 61.8588ZM8.91585 86.6175C7.56033 85.6 6.88257 84.2434 5.52705 83.2259C4.84929 82.5476 4.17153 81.8692 3.15489 81.5301C4.84929 81.1909 6.54369 80.8518 7.89921 80.8518C6.88257 80.8518 5.86593 81.1909 4.51041 81.5301C5.52705 81.8692 6.20481 82.5476 6.88257 83.2259C7.89921 84.2434 8.91585 85.6 9.93249 86.6175C11.6269 88.3133 13.6602 88.9916 16.0323 88.6525C13.3213 88.9916 10.9491 88.3133 8.91585 86.6175ZM13.3213 100.523C11.9658 99.5056 10.9491 98.4881 9.59361 97.8098C8.91585 97.1315 7.89921 96.7923 6.88257 96.4532C7.89921 95.7748 9.25473 95.4357 10.2714 95.0965C9.59361 95.4357 8.91585 95.4357 8.23809 95.7748C9.25473 96.114 9.93248 96.4532 10.9491 97.1315C12.3046 98.149 13.3213 98.8273 14.6768 99.8448C17.049 101.201 19.4211 101.88 22.471 101.201C18.4045 102.558 16.0323 102.219 13.3213 100.523ZM21.4544 113.75C19.76 113.072 18.4045 112.055 17.049 111.376C16.0323 111.037 15.0157 110.698 13.999 110.359C14.3379 110.02 15.0157 109.68 15.3546 109.68C16.3712 109.68 17.3878 110.02 18.4045 110.359C19.76 111.037 21.1155 111.715 22.8099 112.394C25.8598 113.75 29.2486 114.09 32.9763 112.055C28.232 115.446 24.8432 115.446 21.4544 113.75ZM32.9763 124.943C31.2819 124.604 29.9264 123.925 28.5709 123.586C27.5542 123.247 26.1987 122.908 25.1821 123.247C25.521 122.908 26.1987 122.569 26.5376 122.229C27.5542 122.229 28.5709 122.569 29.5875 122.569C30.943 122.908 32.6374 123.586 33.993 123.925C37.3817 124.943 40.4317 124.943 43.8205 122.908C39.7539 125.621 36.704 125.96 32.9763 124.943ZM47.2093 134.439C45.5149 134.439 44.1593 134.1 42.4649 133.761C41.1094 133.761 39.7539 133.761 38.7373 133.761C39.0761 133.083 39.415 132.743 40.0928 132.404C41.1094 132.065 42.1261 132.404 43.1427 132.404C44.8371 132.404 46.1926 132.743 47.887 133.083C51.9536 133.422 55.6813 132.743 58.3923 129.691C55.0035 133.761 51.9536 135.118 47.2093 134.439ZM75.6752 134.778C73.6419 138.848 70.9308 140.883 65.8476 141.222C63.1366 141.562 59.7478 141.222 57.0368 142.24C57.3757 141.562 57.7145 140.883 58.0534 140.544C60.4256 139.866 63.4755 139.866 65.8476 139.866C70.2531 139.527 72.9641 137.831 74.9974 134.1C75.3363 134.1 75.6752 134.1 76.014 134.1L75.6752 134.778ZM95.3302 139.866C97.7024 140.205 100.752 139.866 103.124 140.544C103.463 141.222 103.802 141.901 104.141 142.24C101.43 141.222 97.7024 141.222 95.3302 141.222C90.247 140.883 87.536 138.848 85.5027 134.778L85.1638 134.439C85.5027 134.439 85.8416 134.439 86.1804 134.439C88.2137 137.492 90.5859 139.187 95.3302 139.866ZM113.291 133.083C114.985 133.083 116.341 132.743 118.035 132.404C119.052 132.404 120.068 132.404 121.085 132.404C121.424 132.743 122.102 133.422 122.441 133.761C121.085 133.422 119.73 133.422 118.713 133.761C117.018 133.761 115.663 134.1 113.969 134.439C109.224 134.778 106.174 133.761 103.124 129.691C105.835 133.083 109.224 133.761 113.291 133.083ZM127.524 123.925C128.879 123.586 130.574 122.908 131.929 122.569C132.946 122.229 133.962 122.229 134.979 122.229C135.318 122.569 135.996 122.908 136.335 123.247C134.979 123.247 133.962 123.247 132.946 123.586C131.251 123.925 129.896 124.604 128.54 124.943C124.813 125.96 121.424 125.621 118.035 122.569C120.746 124.943 124.135 124.604 127.524 123.925ZM138.707 113.072C140.062 112.394 141.418 111.715 143.112 111.037C144.129 110.698 145.146 110.359 146.162 110.359C146.501 110.698 147.179 110.698 147.518 111.037C146.501 111.037 145.484 111.376 144.468 112.055C143.112 112.733 141.418 113.75 140.062 114.429C136.674 116.124 133.285 116.124 128.879 113.072C132.268 114.768 135.657 114.429 138.707 113.072ZM146.501 100.184C147.857 99.5056 148.873 98.4881 150.229 97.4706C150.906 97.1315 151.923 96.4532 152.94 96.114C152.262 95.7748 151.584 95.4357 150.906 95.4357C151.923 95.7748 152.94 96.114 154.295 96.7923C153.279 97.1315 152.262 97.4706 151.584 98.149C150.229 99.1664 149.212 100.184 147.857 100.862C145.146 102.558 142.434 102.897 139.046 101.541C141.757 102.219 144.129 101.541 146.501 100.184ZM150.906 86.2783C151.923 85.2609 152.94 83.9042 153.956 82.8867C154.634 82.2084 155.312 81.5301 156.329 81.1909C155.312 80.8518 153.956 80.8518 152.94 80.5126C154.295 80.5126 155.99 80.8518 157.684 81.1909C156.667 81.5301 155.99 82.2084 155.312 82.8867C154.295 83.9042 153.279 85.2609 151.923 86.2783C149.89 87.9741 147.518 88.6525 144.468 87.9741C147.179 88.6525 148.873 87.9741 150.906 86.2783ZM141.757 54.3972C141.757 54.7364 141.757 55.4147 141.757 55.7539C142.096 57.4497 142.434 59.1455 142.434 60.8413C141.757 59.8238 139.385 56.4322 141.757 54.3972ZM145.146 60.1629C147.518 56.093 145.484 51.3448 140.401 47.614C140.401 46.9357 140.401 46.5965 140.062 45.9182C146.84 50.6664 149.212 57.1105 145.146 61.5196C145.484 61.1804 145.484 60.8413 145.146 60.1629Z" fill="#C8593B"></path><path d="M125.829 111.715C132.607 105.271 133.285 99.5056 122.779 93.0616C121.424 92.0441 121.763 93.0616 122.441 93.4007C125.152 98.149 116.68 104.593 125.829 111.715ZM128.879 100.862C128.202 98.8273 126.168 96.7923 124.135 95.0965C126.507 96.7923 128.879 98.8273 129.557 101.541C130.574 104.932 128.202 108.324 125.829 110.698C124.813 109.68 123.796 108.663 123.457 107.645C124.135 108.324 124.474 109.002 125.49 109.68C127.524 106.967 129.896 104.254 128.879 100.862Z" fill="#C8593B"></path><path d="M114.307 120.534C122.441 115.446 124.474 110.359 114.985 102.558C113.63 101.541 114.307 102.219 114.307 102.897C116.341 107.645 106.852 112.733 114.307 120.534ZM119.391 110.698C119.391 109.341 118.713 108.324 118.035 106.967C119.052 108.324 119.73 110.02 120.068 111.376C120.407 114.768 117.018 117.481 114.307 119.177C113.63 118.159 112.952 117.481 112.613 116.464C112.952 117.142 113.291 117.82 113.63 118.159C116.68 116.464 119.73 114.09 119.391 110.698Z" fill="#C8593B"></path><path d="M35.0096 111.715C44.4982 104.593 35.6873 98.149 38.3984 93.7399C38.7373 93.0616 39.415 92.3832 38.0595 93.4007C27.8931 99.5056 28.232 105.271 35.0096 111.715ZM31.6208 101.201C32.2986 98.8273 34.6707 96.7923 37.0429 94.7574C35.0096 96.4532 32.9763 98.149 32.2986 100.523C31.2819 103.915 33.6541 106.967 36.0262 109.002C36.704 108.324 37.3817 107.645 38.0595 106.967C37.3817 107.985 36.704 109.002 35.6874 110.02C32.9763 107.985 30.2653 104.932 31.6208 101.201Z" fill="#C8593B"></path><path d="M29.9264 60.1629C18.7434 61.1804 16.3712 66.2678 17.049 74.4077C26.1987 73.0511 25.8598 66.9462 27.8931 62.8762C28.232 62.5371 28.5709 61.8588 28.9098 61.5196C29.2486 61.1804 29.5875 60.8413 30.2653 60.5021C30.6042 60.5021 31.2819 60.1629 29.9264 60.1629ZM27.5542 62.1979C25.1821 62.5371 23.1488 63.5546 21.4544 64.9112C19.0822 67.2853 19.0822 69.6594 19.0822 72.3727C20.0989 72.0336 20.7766 72.0336 21.7933 72.0336C20.7766 72.7119 19.4211 73.0511 18.0656 73.3902C17.7267 70.6769 18.0656 66.9462 20.4378 64.2329C22.471 62.1979 25.1821 61.5196 27.8931 61.1804C27.8931 61.5196 27.5542 61.8587 27.5542 62.1979Z" fill="#C8593B"></path><path d="M32.2985 83.565C32.6374 82.8867 33.3152 82.5476 31.9597 83.2259C21.1155 87.9741 21.1155 93.4007 25.8598 100.523C36.0262 94.7574 28.9098 87.635 32.2985 83.565ZM24.5043 89.6699C25.521 87.635 27.8931 85.9392 30.6042 84.5825V84.9217C28.5709 85.9392 26.5376 87.635 25.8598 89.3308C24.5043 92.3832 25.521 95.0965 27.2154 97.4706C28.232 96.7923 28.9098 96.4532 29.5875 96.114C28.9098 97.1315 27.8931 98.149 26.5376 98.8273C24.8432 96.4532 23.1488 93.0616 24.5043 89.6699Z" fill="#C8593B"></path><path d="M56.0201 109.68C47.887 119.516 51.2758 123.925 61.1033 127.656C66.8643 118.499 55.6813 115.107 56.6979 110.02C57.0368 109.341 57.0368 108.663 56.0201 109.68ZM60.4256 125.282C61.1033 123.925 61.4422 122.569 61.4422 121.551C61.7811 122.908 61.4422 124.604 60.7645 126.638C55.0035 124.264 51.9536 121.89 52.9702 117.481C52.2925 120.873 55.3424 122.908 60.4256 125.282Z" fill="#C8593B"></path><path d="M69.2365 116.124C69.2365 115.446 69.2364 114.429 68.5587 116.124C63.1366 126.299 66.5254 130.369 77.0307 132.065C77.3696 132.065 77.7084 132.065 78.0473 132.404C81.4361 122.229 69.5753 121.212 69.2365 116.124ZM76.6918 126.299C77.3696 127.656 77.3696 129.013 77.0307 131.048C70.592 130.03 67.2032 127.656 67.2032 123.925C67.8809 126.978 70.9308 128.673 76.6918 129.691C77.0307 128.334 77.0307 127.317 76.6918 126.299Z" fill="#C8593B"></path><path d="M46.1926 102.558C36.704 110.359 38.3984 115.446 46.8704 120.534C54.3257 112.733 44.8371 107.645 46.8704 102.897C47.2093 102.219 47.5481 101.541 46.1926 102.558ZM47.2093 118.499C47.5481 117.82 48.2259 117.142 48.2259 116.803C47.887 117.82 47.5481 118.499 46.5315 119.516C43.8205 117.82 40.4317 115.107 40.7705 111.715C40.7705 110.359 41.7872 108.663 42.8038 107.306C42.1261 108.324 41.4483 109.68 41.4483 111.037C41.1094 114.09 44.4982 116.464 47.2093 118.499Z" fill="#C8593B"></path><path d="M29.5875 72.7119C30.2653 72.3727 30.943 71.6944 29.2486 72.0336C18.4045 75.4252 17.3878 80.5126 20.0989 88.3133C30.943 84.5825 25.521 76.1035 29.5875 72.7119ZM21.1155 77.7993C22.471 75.7644 25.1821 74.4077 27.8931 73.7294C27.8931 74.0685 27.5542 74.0685 27.5542 74.4077C25.521 75.086 23.4877 76.4427 22.1322 78.1385C20.0989 80.8518 20.7766 83.9042 21.4544 86.2783C22.1322 85.9392 23.1488 85.6 23.8266 85.2609C22.8099 85.9392 21.7933 86.6175 20.7766 87.2958C19.76 84.2434 19.0822 80.5126 21.1155 77.7993Z" fill="#C8593B"></path><path d="M129.218 30.3168L128.54 30.656C128.202 30.656 127.524 30.656 126.846 29.9776C126.168 29.6385 125.829 29.2993 125.49 29.6385C125.152 29.9776 125.152 30.656 125.829 30.9951C126.507 31.6734 127.524 31.6734 128.202 31.6734L134.979 29.6385C137.012 28.9601 137.351 28.9601 137.69 29.2993L138.029 28.9601L135.996 26.586L135.318 26.9252C135.996 27.6035 135.996 27.6035 135.657 27.9427C135.318 28.2818 135.318 28.2818 133.962 28.621L131.251 29.6385L133.285 25.9077C133.285 25.5685 133.624 25.5685 133.624 25.5685C133.962 25.2294 133.962 25.5685 134.64 25.9077L134.979 25.5685L132.268 22.5161L131.929 22.8552C132.268 23.5336 132.268 23.5336 131.929 24.5511L129.218 30.3168Z" fill="#C8593B"></path><path d="M127.863 15.3937C128.202 15.0545 128.202 14.3762 127.524 14.0371C127.185 13.6979 126.507 13.6979 126.168 14.3762C125.829 14.7154 125.829 15.3937 126.507 15.7329C126.846 15.7329 127.524 15.7329 127.863 15.3937Z" fill="#C8593B"></path><path d="M123.118 23.5336C122.441 22.8552 122.441 22.5161 123.118 21.4986L126.168 17.4287L123.457 16.072L123.118 16.4112C123.796 16.7504 123.796 17.0895 123.796 17.4287C123.796 17.7678 123.457 18.107 122.779 19.1245L121.763 20.4811C121.085 21.4986 120.746 21.4986 119.73 21.1594L119.391 21.4986L122.779 23.8727L123.118 23.5336Z" fill="#C8593B"></path><path d="M115.663 18.4462L115.324 18.7853L118.713 21.1594L119.391 20.4811C118.713 19.8028 118.713 19.8028 119.391 18.4462L124.135 10.9846L121.424 9.62797L121.085 10.3063C121.763 10.6455 121.763 10.9846 121.763 11.3238C121.763 11.6629 121.424 12.0021 120.746 13.0196L117.696 17.7678C117.018 18.7853 116.68 18.7853 115.663 18.4462Z" fill="#C8593B"></path><path d="M20.4378 31.6734L25.1821 35.4042C26.1987 36.0825 26.1987 36.4217 25.521 37.4392L25.8598 37.7783L29.2486 33.7084L28.9098 33.3692C27.8931 34.7259 27.5542 34.7259 26.5376 34.0476L24.8432 32.3518L25.521 31.3343C27.2154 29.2993 27.2154 27.2643 25.8598 26.2469C24.5043 24.8902 22.8099 25.5685 21.1155 27.6035L18.0656 31.3343L18.4045 31.6734C19.4211 30.656 19.76 30.656 20.4378 31.6734ZM21.4544 28.2818C22.471 26.9252 23.4877 26.9252 24.5043 27.9427C25.521 28.9601 25.521 29.9776 24.5043 31.3343L24.1654 31.6734L21.1155 29.2993V28.9601L21.4544 28.2818Z" fill="#C8593B"></path><path d="M127.524 19.4636L128.202 20.142L125.152 23.8727C124.474 24.5511 124.474 25.5685 125.49 26.2469C126.168 26.9252 126.846 26.9252 127.524 26.586V26.2469C127.185 26.2469 126.846 26.2469 126.507 26.2469C126.168 25.9077 126.168 25.5685 126.846 24.5511L129.557 21.4986L130.574 22.5161L130.913 21.8378L129.896 20.8203L130.913 19.4636L130.574 19.1245C129.896 19.4636 128.879 19.4636 127.863 19.1245L127.524 19.4636Z" fill="#C8593B"></path><path d="M30.2653 26.9252L31.2819 27.9427C32.2985 28.9601 32.2985 28.9601 31.6208 29.9776L31.9597 30.3168L35.3485 27.2643L35.0096 26.9252C33.9929 27.9427 33.993 27.9427 32.9763 26.9252L32.2985 26.2469C31.9597 25.9077 31.2819 25.2294 31.2819 24.8902C30.6042 24.2119 30.6041 23.5336 30.943 23.5336C31.2819 23.1944 31.6208 23.5336 32.2985 23.1944C32.6374 22.8552 32.6374 22.1769 32.2985 21.8378C31.6208 21.1594 30.943 21.1594 30.6042 21.8378C29.9264 22.5161 29.5875 23.5336 29.9264 24.5511L28.9098 23.5336L27.2154 25.9077L27.5542 26.2469C28.232 25.2294 28.5709 25.5685 30.2653 26.9252Z" fill="#C8593B"></path><path d="M70.2531 4.2014C70.2531 4.54056 70.2531 5.21888 70.592 6.23636V7.93217C70.592 9.28881 70.592 9.28881 69.5753 9.62797V10.3063L73.6419 9.96714V9.28881C72.6252 9.28881 72.6252 9.28881 72.2864 7.59301V5.8972C72.2864 5.21888 72.2864 4.87972 72.6252 4.2014C72.9641 3.86224 73.303 3.52308 73.6419 3.18392C74.6585 3.18392 75.3363 3.86224 75.3363 5.55804V7.25385C75.3363 8.61049 75.3363 8.61049 74.3196 8.94965V9.62797L78.3862 9.28881V8.61049C77.3696 8.61049 77.3696 8.61049 77.0307 6.91469V5.21888C77.0307 4.54056 77.0307 4.2014 77.3696 3.52308C77.7084 3.52308 78.0473 3.18392 78.7251 2.84476C79.7417 2.84476 80.0806 3.52308 80.4195 5.21888V6.91469C80.4195 8.27133 80.4195 8.27133 79.4028 8.61049V9.28881L83.4694 8.94965V8.27133C82.4528 8.27133 82.4528 8.27133 82.1139 6.57553V4.54056C82.1139 3.52308 81.775 2.84476 81.4361 2.5056C81.0972 2.16643 80.0806 1.82727 79.064 1.82727C78.0473 1.82727 77.0307 2.5056 76.6918 3.18392C76.3529 2.5056 75.3363 2.16643 74.3196 2.16643C73.303 2.16643 72.6252 2.50559 71.9475 3.52308L71.6086 2.5056L69.2365 3.18392V3.52308C69.9142 3.52308 69.9142 3.86224 70.2531 4.2014Z" fill="#C8593B"></path><path d="M60.0867 7.59301L60.4256 9.28881C60.7645 10.3063 61.1033 10.6455 61.4422 11.3238C62.12 12.0021 62.7977 12.0021 63.8144 11.6629C64.831 11.3238 65.5088 10.6455 65.8476 9.96714L66.1865 10.9846L68.5587 10.3063V9.96714C67.8809 10.3063 67.5421 10.3063 67.2032 9.62797C67.2032 9.28881 66.8643 8.94965 66.5254 7.93217L65.8476 3.52308L62.7977 4.2014V4.87972C63.8144 4.54056 63.8144 4.87972 64.4921 6.23636L64.831 7.59301C65.1699 8.61049 65.1699 9.28881 64.831 9.62797C64.831 10.3063 64.4921 10.6455 63.8144 10.6455C62.7977 10.9846 62.12 10.3063 61.7811 8.61049L60.7645 4.87972L58.0534 5.55804V6.23636C59.4089 5.8972 59.4089 5.8972 60.0867 7.59301Z" fill="#C8593B"></path><path d="M54.6646 4.87972C55.3424 4.54056 55.3424 4.2014 55.3424 3.52308C55.0035 2.84476 54.6646 2.84476 53.9869 2.84476C53.3091 3.18392 53.3091 3.52308 53.3091 4.2014C53.648 4.87972 53.9869 5.21888 54.6646 4.87972Z" fill="#C8593B"></path><path d="M110.58 16.072C111.596 16.4112 112.613 16.4112 113.291 16.072C112.952 16.7504 112.952 17.4287 113.63 17.7678C114.307 18.107 114.985 18.107 115.324 17.7678V17.4287C114.985 17.4287 114.985 17.4287 114.985 17.4287C114.646 17.4287 114.646 16.7504 114.985 16.072L116.341 13.6979C117.019 12.3413 116.68 11.3238 114.985 10.3063C113.291 9.28881 112.274 9.62797 111.935 10.3063C111.596 10.6455 111.935 11.3238 112.274 11.3238C112.613 11.6629 112.952 11.3238 113.291 10.9846C113.63 10.6455 113.969 10.3063 114.646 10.6455C115.324 10.9846 115.324 11.6629 114.985 12.3413L114.646 12.6804H112.613C110.919 12.3413 109.902 12.6804 109.563 13.3587C109.224 14.7154 109.563 15.7329 110.58 16.072ZM111.596 14.3762C111.935 13.6979 112.613 13.6979 114.307 13.6979L113.63 14.7154C113.291 15.3937 112.274 15.7329 111.596 15.3937C111.258 15.3937 111.258 14.7154 111.596 14.3762Z" fill="#C8593B"></path><path d="M41.1094 15.3937C41.4483 15.7329 41.7872 16.072 42.1261 17.0895L42.8038 18.4462C43.4816 19.4636 43.4816 19.8028 42.4649 20.4811L42.8038 20.8203L46.5315 18.7853L46.1926 18.4462C45.176 18.7853 45.176 18.7853 44.4982 17.4287L43.4816 15.7329C43.1427 15.0545 43.1427 14.7154 43.1427 14.0371C43.1427 13.3587 43.1427 13.0196 43.8205 12.6804C44.8371 12.0021 45.5149 12.3413 46.5315 14.0371L47.2093 16.072C47.887 17.0895 47.887 17.4287 46.8704 18.107L47.2093 18.4462L50.9369 16.4112L50.5981 15.7329C49.5814 16.072 49.5814 16.072 48.9037 14.7154L47.887 13.0196C47.5481 12.3413 47.5481 12.0021 47.5481 11.3238C47.5481 10.6455 47.5481 10.3063 48.2259 9.96714C49.2425 9.96714 49.5814 10.3063 50.5981 12.0021L51.6147 13.6979C52.2925 14.7154 52.2925 15.0545 51.2758 15.7329L51.6147 16.072L55.3424 14.0371L55.0035 13.6979C53.9869 14.0371 53.648 13.6979 52.9702 12.6804L51.9536 10.9846C51.2758 9.96713 50.9369 9.62797 50.5981 9.28881C49.9203 8.94965 49.2425 9.28881 48.2259 9.62797C47.2093 9.96713 46.8704 10.9846 46.5315 12.0021C45.8537 11.6629 44.8371 11.6629 43.8205 12.0021C42.8038 12.3413 42.4649 13.0196 42.1261 14.0371L41.4483 13.0196L39.415 14.7154L39.7539 15.0545C40.4317 15.0545 40.7705 15.0545 41.1094 15.3937Z" fill="#C8593B"></path><path d="M39.7539 23.5336C40.7705 22.8552 41.1094 21.8378 41.4483 20.4811H40.7705C40.7705 21.4986 40.0928 22.1769 39.7539 22.5161C38.7373 23.1944 37.3817 22.8552 36.3651 21.4986L36.0262 21.1594L39.415 18.4462C39.7539 18.107 39.7539 18.107 39.415 17.7678C38.3984 16.4112 36.704 16.072 35.3485 17.4287C33.6541 18.7853 33.3152 20.8203 34.6707 22.8552C36.0262 24.5511 38.0595 24.8902 39.7539 23.5336ZM36.0262 18.4462C36.704 18.107 37.3817 18.107 37.7206 18.7853C38.0595 19.1245 37.7206 19.1245 37.3818 19.4636L35.6874 20.4811C35.3485 19.8028 35.3485 18.7853 36.0262 18.4462Z" fill="#C8593B"></path><path d="M53.648 8.27133C54.3257 7.93217 54.6646 7.93217 55.0035 8.27133C55.0035 8.61049 55.3424 8.94965 55.6813 9.96714L56.359 11.6629C56.6979 12.6804 56.6979 13.0196 55.6813 13.6979L56.0201 14.0371L60.0867 12.6804L59.7478 12.3413C58.7312 12.6804 58.7312 12.6804 58.0534 11.3238L56.359 6.57553L53.648 8.27133Z" fill="#C8593B"></path><path d="M92.958 10.6455L91.2636 11.3238C90.5859 11.6629 90.247 11.6629 90.247 12.0021C90.247 12.3413 90.247 12.3413 90.5859 12.3413C91.2636 12.3413 91.6025 11.6629 92.6191 12.0021C93.9747 12.3413 94.9913 14.0371 97.0246 14.3762C98.3801 14.7154 99.7356 14.0371 99.7356 13.0196C99.7356 13.0196 99.7356 12.6804 99.7356 12.3413H99.3967C99.0579 13.0196 98.3801 13.0196 97.7023 13.0196C96.3468 12.6804 95.3302 11.6629 93.6358 11.3238C93.2969 11.3238 93.2969 11.3238 92.958 11.3238C93.2969 11.3238 93.6358 10.9846 94.3136 10.9846C95.6691 10.6455 96.3468 10.6455 96.6857 10.3063C98.3801 9.62797 99.7356 8.27133 100.075 6.57553C100.752 3.52308 98.719 0.809791 95.3302 0.131469C92.2803 -0.546853 89.2304 1.48811 88.8915 4.2014C88.2137 7.25385 89.9081 9.96713 92.958 10.6455ZM91.2636 4.87972C91.9414 2.16643 93.2969 0.809791 95.3302 1.14895C97.3635 1.48811 98.3801 3.52308 97.7023 6.23636C97.0246 8.94965 95.6691 10.6455 93.2969 9.96714C91.6025 9.62797 90.5859 7.59301 91.2636 4.87972Z" fill="#C8593B"></path><path d="M103.463 13.3587C104.48 13.6979 105.497 13.6979 106.174 13.0196L105.835 14.0371L108.546 14.7154L108.885 14.3762C108.208 14.0371 107.869 14.0371 107.869 13.3587C107.869 13.0196 108.208 12.3413 108.546 11.3238L109.902 7.59301L106.852 6.91469L106.513 7.25385C107.53 7.59301 107.53 7.93217 107.191 9.28881L106.852 10.6455C106.513 11.6629 106.174 12.0021 105.835 12.3413C105.497 12.6804 104.819 12.6804 104.48 12.6804C103.463 12.3413 103.463 11.3238 104.141 9.96714L105.497 6.57553L102.786 5.55804L102.447 5.8972C103.463 6.23636 103.463 6.57553 103.124 7.93217L102.447 9.62797C101.43 10.3063 101.43 10.9846 101.769 11.6629C102.108 12.3413 102.447 13.0196 103.463 13.3587Z" fill="#C8593B"></path><path d="M98.3801 64.9112C98.719 64.572 99.3967 64.572 100.075 64.572C107.53 61.5196 103.802 50.3273 103.802 57.1105C103.463 59.1455 100.075 63.2154 98.3801 64.9112Z" fill="#C8593B"></path><path d="M85.5027 78.4776C84.8249 79.4951 87.5359 77.4601 88.8915 77.4601V77.121C90.247 74.7469 91.9414 72.0336 93.9747 68.642C97.3635 63.5546 96.0079 64.572 100.075 60.8413C102.786 58.128 101.769 57.4497 101.769 54.7364C101.769 53.3797 96.6857 64.9112 95.3302 65.9287C93.2969 68.642 88.2137 74.7469 85.5027 78.4776Z" fill="#C8593B"></path><path d="M101.43 26.9252C95.6691 22.8552 91.2636 23.8727 84.8249 25.5685C82.7916 25.9077 80.7584 26.586 78.3862 26.9252C74.6585 27.6035 69.9142 32.0126 66.1865 37.1C61.4422 43.5441 57.7145 51.0056 57.7145 54.3972C58.0534 61.5196 56.6979 63.2154 55.0035 65.2504C52.9702 67.6245 50.9369 70.3378 50.5981 79.8343C50.5981 81.8692 50.2592 83.5651 50.2592 85.2609C49.5814 95.4357 49.2425 100.184 62.7977 102.897C63.1366 102.897 64.4921 102.897 65.8476 102.897C68.5587 102.558 72.2864 102.219 72.2864 102.219H72.6252C83.8083 96.7923 93.9747 91.7049 101.43 80.5126C102.108 79.4951 103.802 78.1385 105.158 76.7818C109.563 73.3902 114.985 69.3203 112.274 60.5021C111.258 56.7713 111.935 55.4147 112.613 54.0581C113.63 52.3622 114.307 50.6664 112.613 45.9182C111.596 43.8832 111.258 42.1874 110.919 40.8308C110.58 39.4741 110.58 38.4566 109.902 37.1C110.919 36.4217 109.224 35.7434 108.885 34.3867C108.208 31.3343 103.802 27.6035 101.43 26.9252ZM105.497 38.1175C105.835 37.7783 107.869 40.4916 108.208 40.4916V40.8308C108.208 41.5091 108.546 42.1874 108.546 43.2049C108.208 43.2049 107.869 43.2049 107.53 43.5441C105.835 43.8832 104.819 47.2748 105.497 49.9881C105.835 51.6839 105.497 57.7888 106.513 58.8063C106.852 59.1455 108.547 59.8238 109.563 60.1629C109.563 60.5021 109.563 60.5021 109.902 60.8413C110.919 63.8937 110.58 66.2678 109.563 68.3028C109.902 67.6245 109.563 58.8063 105.497 61.5196C105.497 62.1979 105.497 62.8762 105.158 63.8937C104.819 64.572 104.48 65.2504 103.463 65.5895C103.463 65.5895 103.463 65.5895 103.124 65.5895C102.786 65.5895 102.786 65.9287 102.447 66.2678C102.786 66.607 103.124 67.2853 103.463 67.9636C103.802 68.642 103.802 68.9811 103.463 69.6595C103.463 69.6595 103.463 69.6595 103.463 69.9986C103.463 70.3378 103.463 70.3378 103.124 70.3378C102.786 70.3378 102.786 70.3378 102.786 69.9986C102.786 69.6595 102.786 69.6595 103.124 69.3203C103.124 69.3203 103.124 68.9811 103.124 68.642C102.786 68.3028 102.447 67.6245 102.447 67.2853V67.6245C102.108 68.3028 102.108 68.9811 102.108 69.3203V69.6595H101.769C101.769 69.6595 101.769 69.6595 101.43 69.3203C101.091 68.9811 101.43 67.9636 101.769 67.2853C102.108 66.607 102.447 65.9287 103.124 65.2504L103.463 64.9112C104.141 64.572 104.48 64.2329 104.48 63.5546C104.819 63.2154 104.819 62.5371 104.819 62.1979C104.48 62.5371 103.802 63.2154 103.463 63.8937C103.124 64.572 100.075 65.5895 98.3801 67.9636C95.6691 72.0336 93.2969 71.0161 90.5859 78.8168C89.5692 81.5301 89.2304 88.9916 93.2969 84.5825C93.6358 83.9042 96.008 82.2084 98.3801 80.1734C95.6691 83.9042 92.6192 86.9567 89.2304 89.6699C89.5692 88.9916 89.5692 88.3133 89.5692 87.635V87.2958C88.5526 88.3133 87.536 88.6525 86.8582 88.9916C85.8416 89.3308 85.1638 89.6699 83.8083 91.3657C83.8083 91.3657 83.4694 91.7049 83.4694 91.3657C83.4694 91.3657 83.1305 91.0266 83.4694 91.0266C84.8249 88.9916 85.8416 88.6525 86.8582 88.3133C87.536 87.9741 88.5526 87.9741 89.2304 86.9567C89.2304 86.9567 89.2304 86.9567 89.5692 86.9567C88.8915 83.9042 90.9248 82.5476 87.8748 81.5301C85.1638 80.5126 84.1472 81.5301 81.4361 83.2259C76.3529 86.6175 75.3363 83.5651 71.6086 85.2609C71.9475 85.2609 72.2864 85.2609 72.6252 85.2609C73.303 85.2609 73.9808 85.2609 74.6585 85.2609C74.9974 85.2609 74.9974 85.2609 74.9974 85.6C74.9974 85.9392 74.9974 85.9392 74.6585 85.9392C73.9808 85.9392 73.303 85.9392 72.6252 85.9392C71.9475 85.9392 71.2697 85.9392 70.592 85.6C70.592 85.6 70.592 85.9392 70.9308 85.9392C71.6086 86.2783 72.6252 86.6175 73.6419 86.9567C74.9974 87.2958 76.014 87.635 75.6752 87.9741C75.6752 88.3133 75.3363 88.3133 75.3363 88.3133C74.9974 88.3133 74.9974 87.9741 74.9974 87.9741C74.9974 87.9741 74.3196 87.9741 73.303 87.635C72.2864 87.2958 70.9308 86.9567 70.592 86.6175C70.2531 86.2783 70.2531 86.2783 69.9142 85.9392C69.5753 85.9392 69.5753 86.2783 69.2364 86.2783C68.2198 86.9567 67.8809 90.3483 67.8809 90.6874C68.5587 93.0616 65.8476 94.7574 67.2032 96.114C68.8976 97.4706 68.2198 96.7923 68.8976 98.4881C69.9142 98.4881 70.592 99.1665 71.6086 99.8448L70.9308 100.184H70.592C70.592 100.184 67.542 100.523 65.1699 100.862C63.8144 100.862 62.7977 101.201 62.7977 100.862C59.7478 100.184 57.3757 99.5056 55.6813 98.4881C59.7478 100.184 65.8476 100.523 67.2032 97.8098C64.4921 90.6874 67.8809 96.7923 66.8643 90.0091C66.8643 90.0091 69.2364 84.9217 62.12 86.6175C59.0701 87.2958 57.0368 79.8343 52.9702 85.6C52.2925 86.6175 51.9536 87.2958 51.6147 87.635C51.6147 86.9567 51.6147 85.9392 51.6147 85.2609C51.6147 83.5651 51.9536 81.8692 51.9536 79.8343C52.2925 71.0161 54.3257 68.642 56.0201 66.607C58.0534 64.2329 59.7478 62.1979 59.0701 54.3972C59.0701 53.0406 59.7478 50.6664 61.1033 47.9532C59.7478 52.0231 61.1033 51.0056 63.4755 50.3273C63.8144 50.3273 66.8643 50.3273 67.2032 50.3273C58.0534 53.0406 64.831 54.7364 58.3923 64.2329C56.359 66.9462 54.3257 72.0336 55.0035 75.086C55.3424 74.7469 66.1865 60.5021 69.2364 53.3797C68.8976 53.3797 68.5587 53.3797 68.2198 53.3797C67.542 53.3797 66.8643 53.3797 66.1865 54.0581C66.1865 54.0581 65.8476 54.3972 65.8476 54.0581C65.8476 54.0581 65.5088 53.7189 65.8476 53.7189C66.5254 52.7014 67.542 52.7014 68.5587 52.7014C68.8976 52.7014 69.2364 52.7014 69.5753 52.7014C69.5753 52.3622 69.9142 52.0231 69.9142 52.0231C69.9142 51.6839 69.9142 51.3448 69.9142 51.0056C70.592 51.3448 70.9308 51.3448 71.2697 51.3448H71.6086C71.6086 47.9532 70.592 47.614 69.9142 47.614C68.8976 47.2748 68.2198 46.9357 68.5587 43.5441C68.5587 43.2049 68.5587 42.8657 68.5587 42.5266C68.2198 42.1874 68.2198 41.8483 68.5587 41.1699C68.5587 40.8308 68.8976 40.8308 68.8976 40.8308C69.2364 40.8308 69.2364 41.1699 69.2364 41.1699C69.2364 41.5091 69.2364 41.8483 69.2364 42.1874C69.2364 42.5266 69.5753 42.8657 69.5753 43.5441C69.5753 44.2224 69.5753 44.5615 69.2364 44.9007C70.2531 44.2224 70.9308 43.2049 71.6086 41.8483C71.9475 41.5091 71.9475 41.1699 72.2864 40.8308C72.2864 40.8308 72.6252 40.4916 72.6252 40.8308C72.6252 40.8308 72.9641 41.1699 72.6252 41.1699C72.2864 41.5091 72.2864 41.8483 71.9475 42.1874C71.2697 43.5441 70.2531 44.9007 68.8976 45.579C68.8976 46.5965 69.5753 46.5965 69.9142 46.9357C70.9308 47.2748 71.9475 47.614 71.9475 51.3448C73.9808 50.6664 73.6419 48.2923 74.3196 43.8832C74.3196 43.2049 75.6752 41.8483 76.014 40.8308C76.3529 37.7783 78.0473 36.0825 78.3862 34.3867C79.4028 29.2993 80.0806 29.2993 76.3529 30.9951C75.6752 30.656 72.6252 32.6909 70.9308 34.0476C73.6419 30.9951 76.3529 28.9601 78.7251 28.621C81.0972 28.2818 83.1305 27.6035 85.1638 27.2643C88.8915 26.586 91.9414 25.5685 94.9913 26.2469C99.0579 29.2993 104.48 38.7958 105.497 38.1175Z" fill="#C8593B"></path><path d="M76.3529 44.5615C76.3529 44.9007 75.3363 46.2574 75.3363 46.5965C75.3363 47.2748 75.3363 47.9532 76.014 48.6315C76.014 48.2923 76.3529 48.2923 76.3529 47.9532C77.7084 46.2574 79.4028 43.5441 80.4195 42.8657C80.4195 42.5266 80.0806 42.1874 79.7417 41.8483C79.064 40.8308 78.3862 39.8133 79.4028 38.4566C79.4028 38.4566 79.7417 38.1175 79.7417 38.4566V38.7958C79.064 39.8133 79.4028 40.4916 80.0806 41.1699C80.4195 41.8483 80.7584 42.1874 80.7584 42.8657C80.7584 42.8657 80.7584 43.2049 80.4195 43.2049C79.7417 43.2049 77.7084 46.2574 76.3529 47.9532C76.014 48.2923 76.014 48.6315 75.6752 48.6315C76.014 48.6315 76.014 48.9706 76.3529 48.9706C76.6918 48.6315 77.0307 48.6315 77.3696 48.6315C78.0473 48.2923 78.7251 47.9532 79.7417 46.9357C80.4195 45.579 82.7916 44.9007 84.8249 44.2224C86.5193 43.5441 87.8748 43.2049 87.8748 42.8657C87.8748 42.5266 87.8748 42.5266 87.8748 42.5266C87.8748 42.5266 87.8748 42.1874 88.2137 42.1874C88.2137 42.1874 88.5526 41.8483 88.5526 42.1874C88.5526 42.1874 88.8915 42.5266 88.5526 42.5266C88.5526 42.5266 88.5526 42.5266 88.5526 42.8657C88.5526 43.5441 87.536 44.2224 86.1804 44.5615C86.5193 44.5615 87.1971 44.5615 87.8748 44.5615C88.5526 44.5615 88.8915 44.5615 88.8915 44.5615C89.2304 44.5615 89.2304 44.5615 89.9081 44.2224C89.9081 44.2224 89.9081 44.2224 90.247 44.2224C90.247 44.2224 90.247 44.2224 90.5859 44.2224C91.2636 44.2224 91.2636 44.2224 91.2636 44.5615C91.2636 44.9007 90.9248 44.9007 90.9248 44.9007C89.9081 45.579 89.5692 45.579 89.2304 45.2399C89.2304 45.2399 88.8915 45.2399 88.5526 45.2399C87.1971 45.579 86.5193 45.579 86.1804 45.2399C85.8416 45.2399 85.8416 45.2399 85.5027 45.2399C83.8083 45.9182 81.775 46.5965 81.0972 47.614C80.0806 48.9706 79.4028 49.3098 78.3862 49.649C78.3862 49.649 78.3862 49.649 78.0473 49.649C78.3862 49.649 78.7251 49.649 79.4028 49.649C78.7251 49.649 78.3862 49.9881 78.0473 49.9881C77.0307 50.3273 77.3696 50.6664 77.3696 52.0231C77.7084 52.0231 78.0473 52.0231 78.3862 52.0231C79.7417 52.0231 80.7584 52.0231 81.775 51.3448C82.1139 51.3448 82.4528 51.3448 82.4528 51.6839V52.0231C82.4528 52.3622 82.4528 53.0406 83.1305 53.3797C83.4694 53.7189 83.8083 53.7189 83.8083 53.7189C84.1472 54.0581 84.486 53.3797 84.8249 53.0406C85.1638 52.3622 85.8416 51.6839 86.5193 51.6839C86.5193 51.6839 86.5193 51.6839 86.8582 51.6839H87.1971V52.0231C86.8582 52.3622 86.8582 52.3622 86.5193 52.3622C85.8416 52.3622 85.5027 53.0406 85.1638 53.3797C84.8249 54.3972 84.486 54.3972 84.1472 54.7364C84.1472 54.7364 84.486 54.7364 85.5027 54.7364H85.8416C86.1804 54.7364 86.1804 54.7364 86.5193 55.0755C86.5193 55.0755 86.8582 55.4147 86.5193 55.4147C86.5193 55.4147 86.1804 55.7539 86.1804 55.4147H85.5027C84.486 55.4147 84.486 55.4147 84.1472 55.0755C84.1472 55.0755 83.8083 55.0755 83.8083 54.7364L83.4694 54.3972C83.1305 54.3972 83.1305 54.0581 82.7916 54.0581C81.775 53.3797 81.775 52.7014 81.775 52.0231C80.7584 52.3622 79.4028 52.3622 78.3862 52.7014C78.0473 52.7014 77.7084 52.7014 77.0307 52.7014C76.3529 53.3797 75.3363 53.7189 75.3363 54.0581C75.6752 54.7364 76.014 55.7539 76.3529 56.093C76.014 56.093 75.6752 56.093 75.3363 56.093C76.014 58.4671 76.3529 59.8238 77.0307 60.5021C78.0473 60.1629 79.4028 60.1629 80.0806 60.5021C80.0806 60.5021 80.4195 60.8413 80.0806 60.8413C80.0806 60.8413 79.7417 61.1804 79.7417 60.8413C79.4028 60.5021 78.3862 60.8413 77.7084 60.8413C78.0473 61.1804 78.3862 61.1804 78.7251 61.5196C79.4028 61.8588 79.7417 62.1979 79.7417 62.5371C79.7417 63.2154 79.7417 63.5546 79.4028 63.8937C79.064 64.2329 78.7251 64.2329 79.064 65.2504C79.064 65.5895 79.064 65.9287 79.064 66.2678V66.607C79.064 66.9462 79.064 66.9462 78.7251 66.9462C78.3862 66.9462 78.3862 66.9462 78.3862 66.607V66.2678C78.3862 65.9287 78.3862 65.5895 78.3862 65.5895C78.0473 64.2329 78.3862 63.5546 78.7251 63.2154C78.7251 63.2154 79.064 62.8762 79.064 62.5371C79.064 62.1979 78.7251 61.8588 78.3862 61.8588C77.3696 61.1804 76.014 60.5021 74.9974 55.7539C74.6585 56.093 73.9808 56.4322 73.6419 56.7713C74.3196 55.0755 74.3196 53.7189 73.6419 53.0406C73.6419 53.3797 73.6419 53.3797 73.303 53.7189C72.9641 54.3972 72.6252 55.0755 71.9475 55.7539C72.2864 56.093 72.2864 56.7713 71.9475 57.1105C71.9475 57.4497 71.9475 57.4497 71.9475 57.7888C71.9475 58.128 71.9475 58.128 71.6086 58.128C71.2697 58.128 71.2697 58.128 71.2697 57.7888C71.2697 57.4497 71.2697 57.4497 71.2697 57.1105C71.2697 56.7713 71.2697 56.7713 71.2697 56.4322C70.592 57.4497 69.9142 58.128 69.9142 58.8063C69.5753 59.8238 69.2364 60.5021 68.8976 60.8413C68.5587 61.5196 68.2198 62.1979 67.8809 63.5546C67.8809 63.8937 67.542 63.8937 67.542 63.8937C67.2032 63.8937 67.2032 63.5546 67.2032 63.5546C67.5421 62.1979 67.8809 61.5196 68.2198 60.8413C68.5587 60.5021 68.8976 59.8238 69.2365 58.8063C69.5753 58.128 70.2531 57.1105 70.9308 55.7539C71.6086 55.0755 71.9475 54.0581 72.2864 53.7189C72.2864 53.3797 72.6252 53.3797 72.6252 53.3797C72.2864 53.3797 72.2864 53.0406 72.6252 53.0406C71.2697 52.3622 69.9142 54.058 65.5088 60.8413C64.1532 63.2154 54.3257 76.7818 53.9869 78.4776C55.0035 79.156 63.1366 85.9392 65.1699 82.5476V82.2084C65.1699 82.2084 65.1699 82.2084 65.1699 81.8692C64.831 81.8692 64.1533 81.5301 63.4755 81.1909C61.7811 80.5126 60.0867 79.8343 60.0867 79.156C60.0867 78.8168 60.0867 78.1385 60.4256 77.7993V77.4602C59.7478 76.1035 59.7478 75.7643 60.7645 74.0685C60.7645 74.0685 61.1033 73.7294 61.1033 74.0685C61.1033 74.0685 61.4422 74.4077 61.1033 74.4077C60.4256 75.7644 60.4256 76.1035 60.7645 76.7818C60.7645 76.4427 61.1033 76.4427 61.1033 76.1035C61.4422 75.7643 61.7811 75.7643 61.4422 75.7643C61.4422 75.7643 61.1033 75.4252 61.4422 75.4252C61.4422 75.4252 61.7811 75.086 61.7811 75.4252C62.12 75.7644 61.7811 76.1035 61.4422 76.7818C61.1033 77.4602 60.4256 78.4776 60.4256 79.156C60.4256 79.4951 62.12 80.1734 63.4755 80.5126C64.1533 80.8518 64.831 81.1909 65.1699 81.1909C66.8643 73.3902 67.8809 64.9112 71.9475 58.8063C70.9308 61.1804 70.9308 64.572 72.2864 64.572C73.9808 64.2329 69.2364 69.9986 68.8976 71.0161C67.2032 77.7993 65.8476 78.4776 67.8809 81.5301C68.2198 82.5476 69.5753 80.8518 70.592 82.8867C70.9308 83.9042 74.3196 82.8867 77.7084 81.5301C77.7084 81.5301 77.7084 81.5301 77.7084 81.1909C78.7251 79.4951 79.4028 78.8168 79.7417 77.7993C80.7584 76.4427 81.0972 75.7643 82.1139 72.3727C82.1139 72.0336 82.4528 72.0336 82.4528 71.6944C82.7916 71.3553 82.7916 71.3553 82.7916 71.3553V71.0161H83.1305C83.4694 71.3553 82.7916 71.6944 82.4528 72.3727C82.4528 72.7119 82.1139 72.7119 82.1139 72.7119C82.1139 73.3902 81.775 74.0685 81.775 74.4077C82.1139 74.4077 82.7916 73.7294 83.1305 73.0511C83.8083 72.3727 84.486 71.6944 85.5027 71.0161C85.8416 70.6769 85.8416 70.6769 86.1804 70.6769V70.3378C86.1804 70.3378 86.5193 69.9986 86.5193 70.3378C86.5193 70.3378 86.8582 70.6769 86.5193 70.6769V71.0161C86.1804 71.3553 86.1804 71.3553 85.8416 71.6944C85.1638 72.0336 84.486 73.0511 83.8083 73.3902C83.1305 74.0685 82.4528 75.086 81.4361 75.086C81.0972 76.4427 80.4195 77.121 79.7417 78.1385C79.4028 78.8168 78.7251 79.4951 78.0473 80.8518C81.4361 79.156 85.1638 76.7818 86.1804 75.086C89.2304 71.0161 93.9747 69.3203 88.8915 64.9112C86.8582 62.8762 83.4694 60.8413 80.7584 58.8063C83.8083 59.8238 87.1971 61.1804 89.5692 63.5546C91.6025 64.572 93.9747 62.5371 95.6691 59.8238C97.0246 57.4497 98.0412 54.3972 98.0412 52.0231C98.0412 51.6839 97.3635 52.0231 97.3635 51.6839C97.3635 50.6664 97.7023 49.649 97.3635 48.9706C97.3635 48.6315 96.0079 48.9706 95.6691 48.9706C94.6524 48.2923 94.6524 47.614 92.6191 48.2923C89.9081 48.9706 87.1971 49.3098 84.8249 49.649C90.9248 48.6315 97.7023 45.9182 97.7023 45.9182C99.3967 44.2224 97.0246 28.621 91.6025 28.621C78.3862 27.6035 78.3862 38.1175 76.3529 44.5615Z" fill="#C8593B"></path><path d="M100.413 38.4566C100.413 42.8657 101.43 42.1874 101.769 46.2574C102.108 50.3273 99.7356 51.6839 103.802 50.6664V48.9706C104.48 47.2748 103.463 44.2224 103.802 43.5441C104.48 41.8483 103.802 40.1525 102.447 38.7958C101.769 38.1175 99.3967 33.3692 99.3967 33.3692C97.7023 34.0476 100.413 36.0825 100.413 38.4566Z" fill="#C8593B"></path></svg>